<?xml version="1.0" encoding="iso-8859-1"?>
<!-- Uploaded to: SVG Repo, www.svgrepo.com, Generator: SVG Repo Mixer Tools -->
<svg fill="#000000" version="1.1" id="Layer_1" xmlns="http://www.w3.org/2000/svg" xmlns:xlink="http://www.w3.org/1999/xlink" 
	 viewBox="0 0 512 512" xml:space="preserve">
<g>
	<g>
		<path d="M119.85,356.362c-26.385,0-47.852,21.466-47.852,47.851c0,26.385,21.466,47.851,47.852,47.851
			s47.851-21.465,47.851-47.851C167.7,377.829,146.234,356.362,119.85,356.362z M119.85,436.361
			c-17.727,0-32.149-14.421-32.149-32.147c0-17.727,14.422-32.148,32.149-32.148s32.147,14.422,32.147,32.148
			C151.997,421.94,137.575,436.361,119.85,436.361z"/>
	</g>
</g>
<g>
	<g>
		<rect x="496.293" y="339.45" width="15.703" height="16.75"/>
	</g>
</g>
<g>
	<g>
		<path d="M119.85,380.362c-13.152,0-23.852,10.7-23.852,23.852c0,13.152,10.7,23.851,23.852,23.851s23.851-10.7,23.851-23.851
			C143.701,391.061,133,380.362,119.85,380.362z M119.85,412.361c-4.493,0-8.149-3.656-8.149-8.148c0-4.493,3.656-8.149,8.149-8.149
			c4.492,0,8.148,3.656,8.148,8.149C127.997,408.706,124.342,412.361,119.85,412.361z"/>
	</g>
</g>
<g>
	<g>
		<rect x="215.73" y="292.341" width="16.75" height="15.703"/>
	</g>
</g>
<g>
	<g>
		<rect x="416.73" y="356.2" width="15.703" height="15.703"/>
	</g>
</g>
<g>
	<g>
		<rect x="391.605" y="356.2" width="15.703" height="15.703"/>
	</g>
</g>
<g>
	<g>
		<rect x="367.527" y="356.2" width="15.703" height="15.703"/>
	</g>
</g>
<g>
	<g>
		<rect x="0.077" y="404.356" width="39.781" height="15.703"/>
	</g>
</g>
<g>
	<g>
		<rect x="175.948" y="404.356" width="287.891" height="15.703"/>
	</g>
</g>
<g>
	<g>
		<rect x="160.245" y="84.012" width="24.078" height="15.703"/>
	</g>
</g>
<g>
	<g>
		<path d="M496.297,364.578v15.702h-32.602V231.519c0-50.263-40.892-91.154-91.154-91.154h-37.464v-8.195h16.75v-15.703H232.484
			V59.936H112.093v56.531H71.265v15.703h16.75v8.255C39.2,142.087,0,182.309,0,231.52v164.545h63.85v-15.703H15.703v-63.94h160.25
			v-25.125h15.703v80.609h15.703V220.109h63.859v151.797h15.703v-80.609h17.073v24.77h127.701v-24.77h16.297v88.984H175.953v15.703
			H512v-31.406H496.297z M127.796,99.718h24.078V84.014h-24.078v-8.375h88.984v8.375h-25.125v15.703h25.125v16.75h-88.984V99.718z
			 M103.718,132.171h215.657v8.195H103.718V132.171z M15.703,300.718v-69.199c0-3.879,0.295-7.689,0.863-11.411h143.683v80.609
			H15.703z M415.992,300.364h-96.295v-80.295h96.295V300.364z M431.695,275.593v-71.228H303.994v71.228h-17.072v-71.188h-95.266
			v71.188h-15.703v-71.188H20.763c10.917-28.243,38.343-48.336,70.391-48.336h281.388c41.604,0,75.45,33.848,75.45,75.45v44.073
			H431.695z"/>
	</g>
</g>
<g>
	<g>
		<polygon points="38.812,275.593 38.812,259.89 23.109,259.89 23.109,291.296 96.39,291.296 96.39,275.593 		"/>
	</g>
</g>
<g>
	<g>
		<rect x="103.714" y="275.591" width="24.078" height="15.703"/>
	</g>
</g>
<g>
	<g>
		<rect x="335.074" y="275.591" width="40.828" height="15.703"/>
	</g>
</g>
<g>
	<g>
		<rect x="383.23" y="275.591" width="16.75" height="15.703"/>
	</g>
</g>
</svg>